<svg width="199" height="92" viewBox="0 0 199 92" fill="none" xmlns="http://www.w3.org/2000/svg">
<path d="M53.7169 18.4C54.1039 23.7544 54.4724 28.3912 54.7856 33.028C55.3384 41.0872 55.928 49.1464 56.2781 57.224C56.3334 58.512 55.6701 60.3888 54.6935 61.1064C49.8659 64.6208 44.7988 67.8592 39.8238 71.1896C39.4368 70.9872 39.0683 70.7664 38.6814 70.564C39.2341 69.552 39.5474 68.2824 40.3581 67.5648C43.3616 64.86 46.6598 62.468 49.5527 59.6712C50.5661 58.696 51.34 56.8008 51.1926 55.4576C50.345 47.9504 49.6264 40.3696 47.9496 33.028C46.5308 26.772 49.6079 23 53.7169 18.4Z" fill="url(#paint0_linear_860_1485)"/>
<path d="M47.231 59.3216C45.4437 52.716 43.2325 46.1656 42.127 39.4496C41.7585 37.26 44.246 34.5736 45.4252 32.1264C45.8859 32.2 46.3465 32.2552 46.7887 32.3288C47.1941 35.42 47.5995 38.4928 48.0233 41.584C48.6313 46.0736 49.4052 50.5632 49.7553 55.0896C49.8659 56.5248 48.9077 58.052 48.4471 59.5424C48.0417 59.4504 47.6363 59.3952 47.231 59.3216Z" fill="url(#paint1_linear_860_1485)"/>
<path d="M40.9109 41.8232C44.7251 50.416 46.3281 60.0208 44.246 62.0632C42.385 57.2792 40.2844 52.6976 38.9209 47.9136C38.4971 46.4232 40.0265 44.3624 40.9109 41.8232Z" fill="url(#paint2_linear_860_1485)"/>
<path d="M38.5524 50.7656C39.8238 55.292 43.0483 59.34 42.6429 64.2712C42.1086 64.4552 41.5927 64.6392 41.0583 64.8232C39.3631 61.456 37.4284 58.1624 36.1017 54.648C35.7148 53.5992 36.9678 51.9432 37.4837 50.5632C37.8522 50.6368 38.2023 50.7104 38.5524 50.7656Z" fill="url(#paint3_linear_860_1485)"/>
<path d="M35.899 58.236C40.0449 64.0688 40.3765 65.412 38.276 67.4544C33.909 62.468 33.3931 60.4808 35.899 58.236Z" fill="url(#paint4_linear_860_1485)"/>
<path d="M79.3913 43.856C79.842 43.856 80.2536 43.9513 80.6263 44.142C81.0076 44.324 81.3066 44.584 81.5233 44.922C81.7486 45.26 81.8613 45.637 81.8613 46.053C81.8613 47.1537 81.363 47.847 80.3663 48.133V48.185C81.5016 48.445 82.0693 49.1903 82.0693 50.421C82.0693 50.889 81.9523 51.305 81.7183 51.669C81.493 52.0243 81.181 52.3017 80.7823 52.501C80.3836 52.7003 79.946 52.8 79.4693 52.8H73.4373V43.856H79.3913ZM76.3103 47.34H78.2863C78.477 47.34 78.633 47.275 78.7543 47.145C78.8843 47.0063 78.9493 46.8373 78.9493 46.638V46.508C78.9493 46.3173 78.8843 46.157 78.7543 46.027C78.6243 45.8883 78.4683 45.819 78.2863 45.819H76.3103V47.34ZM76.3103 50.72H78.4943C78.685 50.72 78.841 50.655 78.9623 50.525C79.0923 50.3863 79.1573 50.2173 79.1573 50.018V49.888C79.1573 49.6887 79.0923 49.524 78.9623 49.394C78.841 49.2553 78.685 49.186 78.4943 49.186H76.3103V50.72ZM88.0015 43.7C89.5441 43.7 90.7358 44.0943 91.5765 44.883C92.4171 45.6717 92.8375 46.82 92.8375 48.328C92.8375 49.836 92.4171 50.9843 91.5765 51.773C90.7358 52.5617 89.5441 52.956 88.0015 52.956C86.4588 52.956 85.2671 52.566 84.4265 51.786C83.5945 50.9973 83.1785 49.8447 83.1785 48.328C83.1785 46.8113 83.5945 45.663 84.4265 44.883C85.2671 44.0943 86.4588 43.7 88.0015 43.7ZM88.0015 45.845C87.3861 45.845 86.9181 46.0313 86.5975 46.404C86.2768 46.7767 86.1165 47.2793 86.1165 47.912V48.744C86.1165 49.3767 86.2768 49.8793 86.5975 50.252C86.9181 50.6247 87.3861 50.811 88.0015 50.811C88.6168 50.811 89.0848 50.6247 89.4055 50.252C89.7348 49.8793 89.8995 49.3767 89.8995 48.744V47.912C89.8995 47.2793 89.7348 46.7767 89.4055 46.404C89.0848 46.0313 88.6168 45.845 88.0015 45.845ZM98.8306 43.7C100.373 43.7 101.565 44.0943 102.406 44.883C103.246 45.6717 103.667 46.82 103.667 48.328C103.667 49.836 103.246 50.9843 102.406 51.773C101.565 52.5617 100.373 52.956 98.8306 52.956C97.2879 52.956 96.0962 52.566 95.2556 51.786C94.4236 50.9973 94.0076 49.8447 94.0076 48.328C94.0076 46.8113 94.4236 45.663 95.2556 44.883C96.0962 44.0943 97.2879 43.7 98.8306 43.7ZM98.8306 45.845C98.2152 45.845 97.7472 46.0313 97.4266 46.404C97.1059 46.7767 96.9456 47.2793 96.9456 47.912V48.744C96.9456 49.3767 97.1059 49.8793 97.4266 50.252C97.7472 50.6247 98.2152 50.811 98.8306 50.811C99.4459 50.811 99.9139 50.6247 100.235 50.252C100.564 49.8793 100.729 49.3767 100.729 48.744V47.912C100.729 47.2793 100.564 46.7767 100.235 46.404C99.9139 46.0313 99.4459 45.845 98.8306 45.845ZM108.971 43.7C110.115 43.7 111.055 43.934 111.792 44.402C112.528 44.8613 112.905 45.546 112.923 46.456V46.612H110.232V46.56C110.232 46.3 110.136 46.0833 109.946 45.91C109.755 45.7367 109.465 45.65 109.075 45.65C108.693 45.65 108.399 45.7063 108.191 45.819C107.991 45.9317 107.892 46.0703 107.892 46.235C107.892 46.469 108.03 46.6423 108.308 46.755C108.585 46.8677 109.031 46.9847 109.647 47.106C110.366 47.2533 110.955 47.4093 111.415 47.574C111.883 47.73 112.29 47.99 112.637 48.354C112.983 48.718 113.161 49.212 113.17 49.836C113.17 50.8933 112.81 51.6777 112.091 52.189C111.38 52.7003 110.427 52.956 109.231 52.956C107.835 52.956 106.748 52.722 105.968 52.254C105.196 51.786 104.811 50.9583 104.811 49.771H107.528C107.528 50.2217 107.645 50.525 107.879 50.681C108.113 50.8283 108.477 50.902 108.971 50.902C109.335 50.902 109.634 50.863 109.868 50.785C110.11 50.707 110.232 50.5467 110.232 50.304C110.232 50.0873 110.097 49.927 109.829 49.823C109.569 49.7103 109.14 49.5933 108.542 49.472C107.814 49.316 107.211 49.1557 106.735 48.991C106.258 48.8177 105.842 48.536 105.487 48.146C105.131 47.756 104.954 47.2273 104.954 46.56C104.954 45.5807 105.331 44.8613 106.085 44.402C106.847 43.934 107.809 43.7 108.971 43.7ZM119.744 46.144V52.8H116.871V46.144H113.933V43.856H122.669V46.144H119.744ZM140.481 43.7C141.339 43.7 142.111 43.83 142.795 44.09C143.48 44.35 144.022 44.7357 144.42 45.247C144.828 45.7497 145.031 46.365 145.031 47.093H142.288C142.288 46.7203 142.124 46.4213 141.794 46.196C141.465 45.962 141.066 45.845 140.598 45.845C139.922 45.845 139.411 46.027 139.064 46.391C138.718 46.7463 138.544 47.2533 138.544 47.912V48.744C138.544 49.4027 138.718 49.914 139.064 50.278C139.411 50.6333 139.922 50.811 140.598 50.811C141.066 50.811 141.465 50.7027 141.794 50.486C142.124 50.2607 142.288 49.9747 142.288 49.628H140.26V47.808H145.031V52.8H143.549L143.263 51.916C142.449 52.6093 141.383 52.956 140.065 52.956C138.583 52.956 137.47 52.5703 136.724 51.799C135.979 51.019 135.606 49.862 135.606 48.328C135.606 46.8113 136.027 45.663 136.867 44.883C137.717 44.0943 138.921 43.7 140.481 43.7ZM151.258 43.7C152.801 43.7 153.993 44.0943 154.833 44.883C155.674 45.6717 156.094 46.82 156.094 48.328C156.094 49.836 155.674 50.9843 154.833 51.773C153.993 52.5617 152.801 52.956 151.258 52.956C149.716 52.956 148.524 52.566 147.683 51.786C146.851 50.9973 146.435 49.8447 146.435 48.328C146.435 46.8113 146.851 45.663 147.683 44.883C148.524 44.0943 149.716 43.7 151.258 43.7ZM151.258 45.845C150.643 45.845 150.175 46.0313 149.854 46.404C149.534 46.7767 149.373 47.2793 149.373 47.912V48.744C149.373 49.3767 149.534 49.8793 149.854 50.252C150.175 50.6247 150.643 50.811 151.258 50.811C151.874 50.811 152.342 50.6247 152.662 50.252C152.992 49.8793 153.156 49.3767 153.156 48.744V47.912C153.156 47.2793 152.992 46.7767 152.662 46.404C152.342 46.0313 151.874 45.845 151.258 45.845ZM157.641 43.856H160.514V50.512H165.103V52.8H157.641V43.856ZM170.186 43.856C173.315 43.856 174.879 45.3467 174.879 48.328C174.879 51.3093 173.315 52.8 170.186 52.8H166.312V43.856H170.186ZM169.185 50.655H170.134C171.339 50.655 171.941 50.0093 171.941 48.718V47.938C171.941 46.6467 171.339 46.001 170.134 46.001H169.185V50.655Z" fill="white"/>
<path d="M130.413 40.2C130.329 40.824 130.041 41.604 129.549 42.54C129.057 43.464 128.469 44.394 127.785 45.33C127.113 46.254 126.483 47.016 125.895 47.616H129.459V45.042C129.831 44.514 130.209 43.89 130.593 43.17C130.977 42.45 131.229 41.856 131.349 41.388H132.879V47.616H134.607V50.262H132.879V52.8H129.459V50.262H123.429V47.58C124.077 46.644 124.719 45.51 125.355 44.178C125.991 42.846 126.501 41.52 126.885 40.2H130.413Z" fill="#FFE15A"/>
<defs>
<linearGradient id="paint0_linear_860_1485" x1="47.4814" y1="18.4" x2="47.4814" y2="71.1896" gradientUnits="userSpaceOnUse">
<stop stop-color="#F7931A"/>
<stop offset="1" stop-color="#FFE15A"/>
</linearGradient>
<linearGradient id="paint1_linear_860_1485" x1="45.9271" y1="32.1264" x2="45.9271" y2="59.5424" gradientUnits="userSpaceOnUse">
<stop stop-color="#F7931A"/>
<stop offset="1" stop-color="#FFE15A"/>
</linearGradient>
<linearGradient id="paint2_linear_860_1485" x1="42.0065" y1="41.8232" x2="42.0065" y2="62.0632" gradientUnits="userSpaceOnUse">
<stop stop-color="#F7931A"/>
<stop offset="1" stop-color="#FFE15A"/>
</linearGradient>
<linearGradient id="paint3_linear_860_1485" x1="39.3533" y1="50.5632" x2="39.3533" y2="64.8232" gradientUnits="userSpaceOnUse">
<stop stop-color="#F7931A"/>
<stop offset="1" stop-color="#FFE15A"/>
</linearGradient>
<linearGradient id="paint4_linear_860_1485" x1="36.9685" y1="58.236" x2="36.9685" y2="67.4544" gradientUnits="userSpaceOnUse">
<stop stop-color="#F7931A"/>
<stop offset="1" stop-color="#FFE15A"/>
</linearGradient>
</defs>
</svg>
